# xmcd
#
# Track frame offsets:
#	150
#	17301
#	36536
#	58470
#	74143
#	93879
#	116558
#	132220
#	151243
#	163927
#	189008
#
# Disc length: 2753 seconds
# Revision: 0
# Processed by: cddbd v1.5.2PL0 Copyright (c) Steve Scherf et al.
# Submitted via: dBpowerAMP V12.0
#
DISCID=940abf0b
DTITLE=Grits and Soul - Flood Waters
DYEAR=2014
DGENRE=Bluegrass
TTITLE0=Marietta Jeane
TTITLE1=Flood Waters
TTITLE2=Listen Here, Darlin'
TTITLE3=Blue Friday
TTITLE4=Just Say the Word
TTITLE5=Shame on Me
TTITLE6=Lights on the Mountain
TTITLE7=Guilty Conscience
TTITLE8=Carolina Fox Chase
TTITLE9=Hundred Year Farm
TTITLE10=Carry Me Away
EXTD=
EXTT0=
EXTT1=
EXTT2=
EXTT3=
EXTT4=
EXTT5=
EXTT6=
EXTT7=
EXTT8=
EXTT9=
EXTT10=
PLAYORDER=
